<svg width="175" height="143" xmlns="http://www.w3.org/2000/svg">
 <g>
  <title>background</title>
  <rect x="-1" y="-1" width="177" height="145" id="canvas_background" fill="none"/>
 </g>

 <g>
  <title>Layer 1</title>
  <path d="m174.186106,29.958398l-14.828,24.6917l-13.82,-21.7395l28.648,-2.9522z" fill="#060E4F" id="svg_1"/>
  <path d="m4.878412,31.502009l28.47831,4.3039l-14.8357,21.0598l-13.64261,-25.3637z" fill="#060E4F" id="svg_2"/>
  <path d="m37.576722,113.966628l10.3031,2.293l1.8997,2.988l-2.2939,10.303l-18.7285,13.739l0.7138,-13.227l-12.2803,-4.965l20.3861,-11.131z" fill="#060E4F" id="svg_3"/>
  <path d="m135.135279,129.156786l-1.989,-10.36599l1.986,-2.931l10.367,-1.989l20.049,11.726l-12.421,4.602l0.324,13.242l-18.316,-14.284l0,-0.00001z" fill="#060E4F" id="svg_4"/>
  <rect x="146.62487" y="40.323326" width="3.82636" height="12.6507" transform="rotate(-122.4489974975586 148.53805541992188,46.64867401123047) " fill="#060E4F" id="svg_5"/>
  <rect x="27.63872" y="42.075456" width="3.82636" height="12.6506" transform="rotate(125.16000366210938 29.551898956298828,48.40075302124024) " fill="#060E4F" id="svg_6"/>
  <rect x="50.597712" y="108.518005" width="3.82636" height="12.6507" transform="rotate(-122.4489974975586 52.51089096069336,114.84335327148439) " fill="#060E4F" id="svg_7"/>
  <rect stroke="null" x="127.640853" y="107.733059" width="4.373471" height="13.492365" transform="rotate(124.13500213623047 129.8275909423828,114.47923278808595) " fill="#060E4F" id="svg_8"/>
  <g stroke="null" id="svg_13">
   <path stroke="null" d="m133.815126,27.49495c-23.660906,-22.294237 -61.962326,-22.297807 -85.627272,0c-23.661964,22.294216 -23.665508,58.381577 0,80.67932c23.661197,22.293861 61.962618,22.297485 85.627272,0c23.662256,-22.294398 23.66514,-58.381749 0,-80.67932zm-2.530122,72.546966c-2.829097,-2.383542 -5.855245,-4.49283 -9.044912,-6.310645c2.108214,-6.861607 3.357217,-14.412297 3.652054,-22.261255l17.801243,0c-0.804603,10.57958 -5.118892,20.504027 -12.408384,28.5719zm-92.9758,-28.5719l17.801253,0c0.295215,7.848958 1.544218,15.399649 3.652432,22.261255c-3.189668,1.817816 -6.215729,3.927103 -9.044621,6.310645c-7.289881,-8.067874 -11.603975,-17.99232 -12.409065,-28.5719zm12.409259,-35.842894c2.828891,2.383542 5.85505,4.49283 9.044718,6.310645c-2.108311,6.861607 -3.357325,14.412297 -3.65254,22.261255l-17.801448,0c0.8051,-10.579397 5.119195,-20.503844 12.40927,-28.5719zm36.424773,7.062047c-6.292817,-0.42398 -12.360312,-1.884393 -17.985331,-4.293475c3.271476,-7.937355 9.30235,-17.457296 17.985331,-19.816492l0,24.109967zm0,7.284587l0,14.225535l-23.312531,0c0.267139,-6.639605 1.265542,-13.015289 2.926083,-18.848884c6.39232,2.632988 13.267109,4.205348 20.386448,4.623349zm0,21.49626l0,14.225449c-7.119339,0.418087 -13.994128,1.990447 -20.386448,4.623338c-1.660541,-5.833584 -2.658944,-12.209172 -2.926083,-18.848787l23.312542,0l-0.000011,0zm0,21.510036l0,24.109407c-8.682505,-2.35854 -14.713466,-11.877857 -17.985331,-19.815932c5.625018,-2.409093 11.692514,-3.869409 17.985331,-4.293475zm7.716791,0c6.292731,0.424066 12.360323,1.884382 17.985331,4.293475c-3.27166,7.937172 -9.30234,17.457393 -17.985331,19.815932l0,-24.109407zm0,-7.284587l0,-14.225449l23.312542,0c-0.26715,6.639615 -1.265542,13.015203 -2.926083,18.848787c-6.39232,-2.632891 -13.267109,-4.205251 -20.386459,-4.623338zm0,-21.496174l0,-14.225535c7.11935,-0.418001 13.994138,-1.990361 20.386459,-4.623349c1.660541,5.833595 2.658933,12.209268 2.926083,18.848884l-23.312542,0zm0,-21.510122l0,-24.109752c8.682991,2.359249 14.713854,11.879201 17.985331,19.816545c-5.625008,2.408814 -11.6926,3.869226 -17.985331,4.293206zm17.331079,-20.480207c4.939039,2.037914 9.546901,4.801142 13.677966,8.229547c-1.966515,1.633409 -4.041187,3.114469 -6.207562,4.438931c-1.923931,-4.488119 -4.381482,-8.849795 -7.470404,-12.668478zm-49.849546,12.668478c-2.166365,-1.324463 -4.240842,-2.805522 -6.20726,-4.438931c4.130676,-3.428405 8.738549,-6.191633 13.677675,-8.229547c-3.089019,3.819145 -5.54657,8.180821 -7.470415,12.668478zm0.000194,65.91434c1.923651,4.487754 4.381676,8.849784 7.470415,12.668381c-4.939039,-2.037914 -9.546998,-4.801324 -13.677588,-8.229536c1.966137,-1.633054 4.040809,-3.113931 6.207174,-4.438845zm57.319766,0c2.166365,1.324914 4.241036,2.805791 6.207552,4.438845c-4.131065,3.428212 -8.738927,6.191622 -13.677966,8.229536c3.088641,-3.818597 5.546472,-8.180628 7.470415,-12.668381zm6.231588,-36.59249c-0.295507,-7.848948 -1.54451,-15.399917 -3.652724,-22.261255c3.189571,-1.817816 6.215535,-3.927189 9.044621,-6.310645c7.289492,8.067777 11.603781,17.992234 12.409346,28.5719l-17.801243,0z" fill="#060E4F" id="svg_12"/>
  </g>
 </g>
</svg>