<svg width="220" height="180" viewBox="0 0 220 180" fill="none" xmlns="http://www.w3.org/2000/svg">
<path d="M212.518 40.7894L197.69 65.4811L183.87 43.7416L212.518 40.7894Z" fill="#060E4F"/>
<path d="M21.8766 39.6694L50.3549 43.9733L35.5192 65.0331L21.8766 39.6694Z" fill="#060E4F"/>
<path d="M63.5753 120.799L73.8784 123.092L75.7781 126.08L73.4842 136.383L54.7557 150.122L55.4695 136.895L43.1892 131.93L63.5753 120.799Z" fill="#060E4F"/>
<path d="M162.301 135.989L160.312 125.623L162.298 122.692L172.665 120.703L192.714 132.429L180.293 137.031L180.617 150.273L162.301 135.989Z" fill="#060E4F"/>
<rect x="183.791" y="61.3214" width="3.82636" height="12.6507" transform="rotate(-122.449 183.791 61.3214)" fill="#060E4F"/>
<rect x="51.8035" y="58.4094" width="3.82636" height="12.6506" transform="rotate(125.16 51.8035 58.4094)" fill="#060E4F"/>
<rect x="74.9296" y="127.017" width="3.82636" height="12.6507" transform="rotate(-122.449 74.9296 127.017)" fill="#060E4F"/>
<rect x="163.495" y="123.099" width="3.82636" height="12.6507" transform="rotate(124.135 163.495 123.099)" fill="#060E4F"/>
</svg>
